<?xml version="1.0" standalone="no"?><!DOCTYPE svg PUBLIC "-//W3C//DTD SVG 1.1//EN" "http://www.w3.org/Graphics/SVG/1.1/DTD/svg11.dtd"><svg t="1597047179667" class="icon" viewBox="0 0 1024 1024" version="1.1" xmlns="http://www.w3.org/2000/svg" p-id="6426" xmlns:xlink="http://www.w3.org/1999/xlink" width="64" height="64"><defs><style type="text/css"></style></defs><path d="M960 512c0 247.4-200.6 448-448 448-25.3 0-50.2-2.1-74.3-6.2-6.8-1.1-13.6-2.4-20.4-3.8-15.2-3.3-30.2-7.3-44.8-12.1C193.3 879.2 64 710.7 64 512 64 264.6 264.6 64 512 64c127.6 0 242.7 53.3 324.3 138.9C912.9 283.3 960 392.2 960 512z" fill="#E95C94" p-id="6427"></path><path d="M960 512c0 247.4-200.6 448-448 448-25.3 0-50.2-2.1-74.3-6.2-6.8-1.1-13.6-2.4-20.4-3.8-15.2-3.3-30.2-7.3-44.8-12.1L146 711.5l621.4-505.2 68.9-3.4C912.9 283.3 960 392.2 960 512z" fill="#E02B6C" p-id="6428"></path><path d="M629.7 804.5v26.9c0 3.4-2.7 6-6 6H400.3c-3.4 0-6-2.7-6-6v-26.9c0-7.1 5.7-12.8 12.8-12.8h45.2V633.9h119.6v157.8H617c7.1 0 12.7 5.8 12.7 12.8z" fill="#5F2B88" p-id="6429"></path><path d="M629.7 804.5v26.9c0 3.4-2.7 6-6 6H512V633.9h59.8v157.8H617c7.1 0 12.7 5.8 12.7 12.8z" fill="#3D2652" p-id="6430"></path><path d="M892.6 219.4v458.4c0 25.5-20.9 46.4-46.4 46.4H177.8c-25.5 0-46.4-20.9-46.4-46.4V219.4c0-25.5 20.9-46.4 46.4-46.4h668.4c25.5-0.1 46.4 20.8 46.4 46.4z" fill="#885AEF" p-id="6431"></path><path d="M892.6 219.4v458.4c0 25.5-20.9 46.4-46.4 46.4H512V172.9h334.2c25.5 0 46.4 20.9 46.4 46.5z" fill="#5F2B88" p-id="6432"></path><path d="M186.3 227.9h651.4v441.5H186.3z" fill="#FFFFFF" p-id="6433"></path><path d="M512 227.9h325.7v441.5H512z" fill="#E8E4EF" p-id="6434"></path><path d="M771.5 586.6c0 5.6-2.3 10.7-6 14.4s-8.8 6-14.4 6H302.8c-11.3 0-20.4-9.2-20.4-20.4 0-5.6 2.3-10.7 6-14.4s8.8-6 14.4-6H751c11.3 0 20.5 9.1 20.5 20.4z" fill="#4BB6EF" p-id="6435"></path><path d="M751 607H511.9v-40.9H751c11.3 0 20.4 9.2 20.4 20.4 0 5.6-2.3 10.7-6 14.4-3.7 3.8-8.7 6.1-14.4 6.1z" fill="#3892CB" p-id="6436"></path><path d="M472.2 491.7c0-7.9-3.1-15.4-8.7-21L400.9 408c-1.5-1.5-3.5-2.3-5.6-2.2-2.1 0.1-4.1 0.9-5.5 2.5l-9.5 10.3-84.4-84.4c3.6-8.1 2.2-17.9-4.4-24.5l-14.2-14.2c-1.4-1.4-3.4-2.2-5.4-2.2s-4 0.8-5.4 2.2l-20.1 20.1c-3 3-3 7.8 0 10.8l14.2 14.2c4.3 4.3 9.9 6.4 15.5 6.4 3.1 0 6.2-0.7 9-2l84.8 84.8-9.9 10.7c-2.8 3-2.7 7.7 0.2 10.6l61.5 61.5c5.8 5.8 13.4 8.7 21 8.7s15.2-2.9 21-8.7l-5.4-5.4 5.4 5.4c5.5-5.5 8.5-13 8.5-20.9zM271.4 329.8l-8.8-8.8 9.2-9.2 8.8 8.8c2.5 2.6 2.5 6.7 0 9.2s-6.6 2.5-9.2 0z" fill="#F7C800" p-id="6437"></path><path d="M462.8 323.8c-0.7-2.3-2.3-3.9-4.3-4.7-2.7-1.1-5.9-0.7-8.2 1.6l-14.6 14.6c-5.3 5.3-13.9 6-19.7 1.2-6.7-5.5-7.1-15.5-1.1-21.5l14.9-14.9c2.3-2.3 2.7-5.5 1.6-8.2-0.8-1.9-2.4-3.6-4.6-4.2-19.4-6-41.5-1-56.4 15-15 16.2-18.4 39.4-10.2 58.7 0 0.1 0.1 0.2 0.1 0.3L247.2 466.5c-11 10-11.4 27.2-0.9 37.7 10.2 10.2 26.7 10.1 36.8 0l0.9-0.9 104.7-113c0.1 0.1 0.3 0.1 0.4 0.2 19.9 8.4 43.8 4.5 60.1-11.7 14.9-15 19.4-36.2 13.6-55z m-188 167.3c-4.2 4.2-11.1 4.2-15.4 0-4.2-4.2-4.2-11.1 0-15.3 4.2-4.2 11.1-4.2 15.4 0 4.2 4.2 4.2 11 0 15.3z" fill="#5F2B88" p-id="6438"></path><path d="M771.5 509.9c0 5.7-2.3 10.7-6 14.4s-8.8 5.9-14.4 5.9H560.7c-11.3 0-20.4-9.2-20.4-20.4 0-5.7 2.3-10.7 6-14.4 3.7-3.7 8.8-5.9 14.4-5.9H751c11.3-0.1 20.5 9.1 20.5 20.4zM759.5 451.3H635.6c-6.6 0-12-5.4-12-12v-142c0-6.6 5.4-12 12-12h123.8c6.6 0 12 5.4 12 12v142c0.1 6.6-5.3 12-11.9 12z" fill="#3892CB" p-id="6439"></path><path d="M355.1 436.6c0.1 0 0.3 0.1 0.4 0.1-0.2 0-0.3 0-0.4-0.1zM406.7 436.6c-0.2 0.1-0.4 0.2-0.6 0.2 0.2-0.1 0.4-0.2 0.6-0.2z" fill="#313144" p-id="6440"></path></svg>